<svg width="16" height="16" viewBox="0 0 16 16" fill="none" xmlns="http://www.w3.org/2000/svg">
<path fill-rule="evenodd" clip-rule="evenodd" d="M3.90094 2.41095C4.79079 1.81638 5.83696 1.49902 6.90717 1.49902H6.9072C8.34227 1.49911 9.71854 2.06923 10.7333 3.08398C11.748 4.09873 12.3182 5.475 12.3182 6.91007V6.9101C12.3182 7.98031 12.0009 9.02649 11.4063 9.91633C11.3021 10.0723 11.1901 10.2223 11.0711 10.3658L14.3551 13.6498C14.5507 13.8454 14.5507 14.1626 14.3551 14.3583C14.1595 14.5539 13.8423 14.5539 13.6466 14.3583L10.3626 11.0742C9.94769 11.4185 9.48142 11.7007 8.9779 11.9093C7.98916 12.3188 6.90117 12.426 5.85152 12.2172C4.80188 12.0084 3.83772 11.4931 3.08096 10.7363C2.32421 9.97956 1.80886 9.01539 1.60007 7.96575C1.39128 6.9161 1.49844 5.82811 1.90799 4.83937C2.31754 3.85063 3.01109 3.00553 3.90094 2.41095ZM6.90714 2.50091C6.0351 2.50092 5.18264 2.75952 4.45756 3.244C3.73247 3.72848 3.16734 4.4171 2.83362 5.22278C2.4999 6.02845 2.41258 6.91499 2.58271 7.77029C2.75284 8.62559 3.17277 9.41123 3.78941 10.0279C4.40604 10.6445 5.19168 11.0644 6.04698 11.2346C6.90228 11.4047 7.78882 11.3174 8.59449 10.9837C9.40017 10.6499 10.0888 10.0848 10.5733 9.35971C11.0578 8.63463 11.3163 7.78217 11.3164 6.91013M6.90717 2.50091C8.07654 2.501 9.19798 2.96556 10.0248 3.79243C10.8517 4.61929 11.3163 5.74074 11.3164 6.9101" fill="#CBCFD2"/>
</svg>
